<?xml version="1.0" standalone="no"?>
<!DOCTYPE svg PUBLIC "-//W3C//DTD SVG 20010904//EN"
 "http://www.w3.org/TR/2001/REC-SVG-20010904/DTD/svg10.dtd">
<svg version="1.0" xmlns="http://www.w3.org/2000/svg"
 width="161.000000pt" height="154.000000pt" viewBox="0 0 161.000000 154.000000"
 preserveAspectRatio="xMidYMid meet">

<g transform="translate(0.000000,154.000000) scale(0.100000,-0.100000)"
fill="#000000" stroke="none">
<path d="M1015 1486 c14 -10 19 -27 20 -70 1 -32 -2 -59 -5 -61 -3 -2 -6 -32
-5 -66 1 -56 4 -64 31 -86 119 -98 188 -199 214 -312 18 -77 9 -224 -18 -285
-25 -55 -27 -66 -11 -66 7 0 86 53 175 117 184 131 174 116 148 240 -56 271
-227 477 -474 572 -91 35 -102 37 -75 17z"/>
<path d="M1080 625 c0 -26 17 -35 65 -35 66 0 47 37 -25 50 -37 7 -40 6 -40
-15z"/>
<path d="M1266 452 c-3 -5 -10 -54 -16 -108 -13 -117 -15 -124 -35 -124 -28 0
-13 -42 18 -53 43 -14 56 6 68 105 14 114 9 182 -13 186 -9 2 -19 -1 -22 -6z"/>
</g>
</svg>
